<svg width="331" height="69" viewBox="0 0 331 69" fill="none" xmlns="http://www.w3.org/2000/svg">
<path d="M17.8399 67.8823V13.4706H0.981195V1.42868H48.2569V13.4706H31.6658V67.8823H17.8399ZM54.1225 67.8823V0.358294H67.5024V28.8129L65.8968 26.6722C67.0267 23.7583 68.8404 21.6175 71.338 20.2498C73.8951 18.8226 76.8684 18.109 80.258 18.109C83.9449 18.109 87.1561 18.8821 89.8915 20.4282C92.6864 21.9743 94.8569 24.1448 96.4031 26.9397C97.9492 29.6752 98.7223 32.8864 98.7223 36.5733V67.8823H85.3423V39.4277C85.3423 37.5248 84.9558 35.8894 84.1827 34.5217C83.4691 33.154 82.4285 32.0836 81.0608 31.3105C79.7525 30.5375 78.2064 30.1509 76.4224 30.1509C74.6979 30.1509 73.1517 30.5375 71.784 31.3105C70.4163 32.0836 69.3459 33.154 68.5728 34.5217C67.8592 35.8894 67.5024 37.5248 67.5024 39.4277V67.8823H54.1225ZM122.595 68.9527C119.086 68.9527 116.054 68.3878 113.497 67.2579C110.94 66.1281 108.977 64.5225 107.609 62.4412C106.242 60.3004 105.558 57.773 105.558 54.8592C105.558 52.1237 106.182 49.7154 107.431 47.634C108.68 45.4932 110.583 43.7093 113.14 42.2821C115.756 40.8549 118.997 39.8439 122.863 39.2493L137.759 36.8409V46.6528L125.271 48.8828C123.368 49.2396 121.911 49.864 120.9 50.756C119.889 51.5885 119.384 52.8076 119.384 54.4132C119.384 55.8999 119.949 57.0595 121.079 57.892C122.208 58.7245 123.606 59.1408 125.271 59.1408C127.471 59.1408 129.404 58.665 131.069 57.7136C132.734 56.7621 134.013 55.4836 134.904 53.878C135.856 52.2129 136.332 50.3992 136.332 48.4368V35.7705C136.332 33.927 135.588 32.3809 134.102 31.1321C132.675 29.8833 130.712 29.2589 128.215 29.2589C125.836 29.2589 123.725 29.9131 121.881 31.2213C120.097 32.5296 118.789 34.2541 117.957 36.3949L107.253 31.3105C108.204 28.5751 109.721 26.2262 111.802 24.2638C113.883 22.3014 116.381 20.785 119.295 19.7146C122.208 18.6442 125.39 18.109 128.839 18.109C132.942 18.109 136.57 18.8523 139.721 20.339C142.873 21.8256 145.311 23.907 147.036 26.5829C148.82 29.1995 149.712 32.262 149.712 35.7705V67.8823H137.224V60.0328L140.256 59.4976C138.829 61.6384 137.253 63.4223 135.529 64.8495C133.804 66.2173 131.872 67.2282 129.731 67.8823C127.59 68.5959 125.211 68.9527 122.595 68.9527ZM159.524 67.8823V19.1794H172.012V28.8129L171.299 26.6722C172.428 23.7583 174.242 21.6175 176.74 20.2498C179.297 18.8226 182.27 18.109 185.66 18.109C189.347 18.109 192.558 18.8821 195.293 20.4282C198.088 21.9743 200.259 24.1448 201.805 26.9397C203.351 29.6752 204.124 32.8864 204.124 36.5733V67.8823H190.744V39.4277C190.744 37.5248 190.358 35.8894 189.584 34.5217C188.871 33.154 187.83 32.0836 186.463 31.3105C185.154 30.5375 183.608 30.1509 181.824 30.1509C180.1 30.1509 178.553 30.5375 177.186 31.3105C175.818 32.0836 174.748 33.154 173.975 34.5217C173.261 35.8894 172.904 37.5248 172.904 39.4277V67.8823H159.524ZM212.922 67.8823V0.358294H226.302V43.6201L221.307 42.0145L242.804 19.1794H259.306L241.644 38.8033L259.217 67.8823H244.053L229.335 43.1741L237.095 41.2117L222.199 57.446L226.302 49.6856V67.8823H212.922ZM284.276 68.9527C278.924 68.9527 274.256 67.7039 270.272 65.2063C266.347 62.6493 263.671 59.23 262.244 54.9484L272.056 50.31C273.305 52.9265 274.999 54.9781 277.14 56.4648C279.281 57.9514 281.66 58.6948 284.276 58.6948C286.179 58.6948 287.636 58.3082 288.647 57.5352C289.658 56.7621 290.163 55.6917 290.163 54.324C290.163 53.6104 289.985 53.0157 289.628 52.54C289.271 52.0048 288.736 51.5291 288.022 51.1128C287.309 50.6966 286.417 50.3398 285.346 50.0424L277.051 47.7232C273.067 46.5934 270.004 44.7797 267.863 42.2821C265.723 39.725 264.652 36.722 264.652 33.2729C264.652 30.2401 265.425 27.5939 266.971 25.3342C268.517 23.0744 270.688 21.3202 273.483 20.0714C276.278 18.7631 279.489 18.109 283.116 18.109C287.874 18.109 292.036 19.2389 295.604 21.4986C299.232 23.6988 301.789 26.8208 303.276 30.8645L293.374 35.5029C292.661 33.481 291.353 31.8755 289.45 30.6861C287.606 29.4373 285.495 28.8129 283.116 28.8129C281.392 28.8129 280.024 29.1697 279.013 29.8833C278.062 30.5969 277.586 31.5781 277.586 32.8269C277.586 33.481 277.764 34.0757 278.121 34.6109C278.478 35.1461 279.043 35.6218 279.816 36.0381C280.649 36.4544 281.66 36.8409 282.849 37.1977L290.609 39.5169C294.653 40.7062 297.745 42.5199 299.886 44.9581C302.027 47.3367 303.097 50.2803 303.097 53.7888C303.097 56.8216 302.294 59.4678 300.689 61.7276C299.143 63.9873 296.972 65.7713 294.177 67.0795C291.382 68.3283 288.082 68.9527 284.276 68.9527ZM318.23 47.3664L317.338 1.42868H330.718L329.826 47.3664H318.23ZM317.338 67.8823V54.5024H330.718V67.8823H317.338Z" fill="white"/>
</svg>
