<svg width="1606" height="335" viewBox="0 0 1606 335" fill="none" xmlns="http://www.w3.org/2000/svg">
<path d="M82.8 329V64.26H0.774V5.66997H230.794V64.26H150.07V329H82.8ZM259.333 329V0.461987H324.433V138.908L316.621 128.492C322.118 114.315 330.943 103.899 343.095 97.244C355.536 90.3 370.003 86.828 386.495 86.828C404.434 86.828 420.058 90.5893 433.367 98.112C446.966 105.635 457.526 116.195 465.049 129.794C472.572 143.103 476.333 158.727 476.333 176.666V329H411.233V190.554C411.233 181.295 409.352 173.339 405.591 166.684C402.119 160.029 397.056 154.821 390.401 151.06C384.036 147.299 376.513 145.418 367.833 145.418C359.442 145.418 351.92 147.299 345.265 151.06C338.61 154.821 333.402 160.029 329.641 166.684C326.169 173.339 324.433 181.295 324.433 190.554V329H259.333ZM592.486 334.208C575.415 334.208 560.659 331.459 548.218 325.962C535.776 320.465 526.228 312.653 519.574 302.526C512.919 292.11 509.592 279.813 509.592 265.636C509.592 252.327 512.63 240.609 518.706 230.482C524.782 220.066 534.04 211.386 546.482 204.442C559.212 197.498 574.981 192.579 593.788 189.686L666.266 177.968V225.708L605.506 236.558C596.247 238.294 589.158 241.332 584.24 245.672C579.321 249.723 576.862 255.654 576.862 263.466C576.862 270.699 579.61 276.341 585.108 280.392C590.605 284.443 597.404 286.468 605.506 286.468C616.211 286.468 625.614 284.153 633.716 279.524C641.817 274.895 648.038 268.674 652.378 260.862C657.007 252.761 659.322 243.936 659.322 234.388V172.76C659.322 163.791 655.705 156.268 648.472 150.192C641.528 144.116 631.98 141.078 619.828 141.078C608.254 141.078 597.983 144.261 589.014 150.626C580.334 156.991 573.968 165.382 569.918 175.798L517.838 151.06C522.467 137.751 529.845 126.322 539.972 116.774C550.098 107.226 562.25 99.848 576.428 94.64C590.605 89.432 606.084 86.828 622.866 86.828C642.83 86.828 660.479 90.4447 675.814 97.678C691.148 104.911 703.011 115.038 711.402 128.058C720.082 140.789 724.422 155.689 724.422 172.76V329H663.662V290.808L678.418 288.204C671.474 298.62 663.806 307.3 655.416 314.244C647.025 320.899 637.622 325.817 627.206 329C616.79 332.472 605.216 334.208 592.486 334.208ZM772.165 329V92.036H832.925V138.908L829.453 128.492C834.95 114.315 843.775 103.899 855.927 97.244C868.368 90.3 882.835 86.828 899.327 86.828C917.266 86.828 932.89 90.5893 946.199 98.112C959.798 105.635 970.358 116.195 977.881 129.794C985.404 143.103 989.165 158.727 989.165 176.666V329H924.065V190.554C924.065 181.295 922.184 173.339 918.423 166.684C914.951 160.029 909.888 154.821 903.233 151.06C896.868 147.299 889.345 145.418 880.665 145.418C872.274 145.418 864.752 147.299 858.097 151.06C851.442 154.821 846.234 160.029 842.473 166.684C839.001 173.339 837.265 181.295 837.265 190.554V329H772.165ZM1031.97 329V0.461987H1097.07V210.952L1072.77 203.14L1177.36 92.036H1257.65L1171.72 187.516L1257.22 329H1183.44L1111.83 208.782L1149.59 199.234L1077.11 278.222L1097.07 240.464V329H1031.97ZM1379.14 334.208C1353.1 334.208 1330.39 328.132 1311.01 315.98C1291.91 303.539 1278.89 286.902 1271.95 266.07L1319.69 243.502C1325.76 256.233 1334.01 266.215 1344.42 273.448C1354.84 280.681 1366.41 284.298 1379.14 284.298C1388.4 284.298 1395.49 282.417 1400.41 278.656C1405.33 274.895 1407.79 269.687 1407.79 263.032C1407.79 259.56 1406.92 256.667 1405.18 254.352C1403.45 251.748 1400.84 249.433 1397.37 247.408C1393.9 245.383 1389.56 243.647 1384.35 242.2L1343.99 230.916C1324.61 225.419 1309.7 216.594 1299.29 204.442C1288.87 192.001 1283.66 177.389 1283.66 160.608C1283.66 145.852 1287.43 132.977 1294.95 121.982C1302.47 110.987 1313.03 102.452 1326.63 96.376C1340.23 90.0107 1355.85 86.828 1373.5 86.828C1396.65 86.828 1416.9 92.3253 1434.26 103.32C1451.91 114.025 1464.35 129.215 1471.59 148.89L1423.41 171.458C1419.94 161.621 1413.58 153.809 1404.32 148.022C1395.35 141.946 1385.08 138.908 1373.5 138.908C1365.11 138.908 1358.46 140.644 1353.54 144.116C1348.91 147.588 1346.59 152.362 1346.59 158.438C1346.59 161.621 1347.46 164.514 1349.2 167.118C1350.93 169.722 1353.68 172.037 1357.44 174.062C1361.5 176.087 1366.41 177.968 1372.2 179.704L1409.96 190.988C1429.63 196.775 1444.68 205.599 1455.09 217.462C1465.51 229.035 1470.72 243.357 1470.72 260.428C1470.72 275.184 1466.81 288.059 1459 299.054C1451.48 310.049 1440.92 318.729 1427.32 325.094C1413.72 331.17 1397.66 334.208 1379.14 334.208ZM1544.35 229.18L1540.01 5.66997H1605.11L1600.77 229.18H1544.35ZM1540.01 329V263.9H1605.11V329H1540.01Z" fill="white"/>
</svg>
